<svg xmlns="http://www.w3.org/2000/svg" width="18" height="9" viewBox="0 0 18 9">
  <g id="Polygon_3" data-name="Polygon 3" fill="#fff">
    <path d="M 13.17156982421875 8.500002861022949 L 4.82843017578125 8.500002861022949 C 4.089459896087646 8.500002861022949 3.628030061721802 8.021672248840332 3.442610025405884 7.574022769927979 C 3.257189989089966 7.126372814178467 3.245229959487915 6.461862564086914 3.767760038375854 5.939332485198975 L 7.939340114593506 1.767762660980225 C 8.222649574279785 1.484452724456787 8.599329948425293 1.328422665596008 9 1.328422665596008 C 9.400659561157227 1.328422665596008 9.777339935302734 1.484452724456787 10.06066036224365 1.767762660980225 L 14.23223972320557 5.939332485198975 C 14.75477027893066 6.461862564086914 14.74281024932861 7.126372814178467 14.5573902130127 7.574022769927979 C 14.37197017669678 8.021672248840332 13.9105396270752 8.500002861022949 13.17156982421875 8.500002861022949 Z" stroke="none"/>
    <path d="M 9 1.828422546386719 C 8.732890129089355 1.828422546386719 8.481769561767578 1.932442665100098 8.292900085449219 2.121322631835938 L 4.121319770812988 6.292892456054688 C 3.682920455932617 6.731292724609375 3.844559669494629 7.237862586975098 3.904549598693848 7.382682800292969 C 3.964529991149902 7.52750301361084 4.208430290222168 8.000002861022949 4.82843017578125 8.000002861022949 L 13.17156982421875 8.000002861022949 C 13.79157066345215 8.000002861022949 14.0354700088501 7.52750301361084 14.09544944763184 7.382682800292969 C 14.15544033050537 7.237862586975098 14.31707954406738 6.731292724609375 13.87868022918701 6.292892456054688 L 9.707099914550781 2.121322631835938 C 9.518230438232422 1.932442665100098 9.267109870910645 1.828422546386719 9 1.828422546386719 M 8.999996185302734 0.828425407409668 C 9.511839866638184 0.828425407409668 10.02368545532227 1.023687362670898 10.41420936584473 1.414212226867676 L 14.58578968048096 5.585782527923584 C 15.8457202911377 6.845712661743164 14.9533805847168 9.000002861022949 13.17156982421875 9.000002861022949 L 4.82843017578125 9.000002861022949 C 3.04662036895752 9.000002861022949 2.154279708862305 6.845712661743164 3.414210319519043 5.585782527923584 L 7.585789680480957 1.414212226867676 C 7.976309776306152 1.023687362670898 8.488152503967285 0.828425407409668 8.999996185302734 0.828425407409668 Z" stroke="none" fill="#eff0f1"/>
  </g>
</svg>
