<svg width="10" height="6" viewBox="0 0 10 6" fill="none" xmlns="http://www.w3.org/2000/svg">
<path d="M2.25491 0.0924793L0.533297 1.8454C0.449382 1.93082 0.4494 2.06934 0.533297 2.15474L2.25486 3.90761C2.38978 4.04498 2.6216 3.94767 2.62161 3.75293L2.62165 2.5104L8.63445 2.5104L8.63445 4.33331C8.63444 4.36204 8.64 4.39048 8.6508 4.41702C8.6616 4.44356 8.67742 4.46768 8.69738 4.48799L9.27029 5.07132C9.40563 5.20913 9.63705 5.11153 9.63705 4.91665L9.63705 1.92706C9.63705 1.68543 9.44468 1.48956 9.20736 1.48956L2.62167 1.48956L2.62169 0.247172C2.62169 0.0534692 2.39062 -0.0456981 2.25491 0.0924793Z" fill="#00708D"/>
</svg>
