<svg width="10" height="6" viewBox="0 0 10 6" fill="none" xmlns="http://www.w3.org/2000/svg">
<path d="M7.85272 5.0731L9.57434 3.32018C9.65825 3.23476 9.65824 3.09623 9.57434 3.01083L7.85278 1.25797C7.71786 1.12059 7.48604 1.2179 7.48602 1.41264L7.48599 2.65518L1.47319 2.65518L1.47319 0.832261C1.47319 0.803534 1.46763 0.775089 1.45684 0.748549C1.44604 0.722009 1.43021 0.697896 1.41026 0.677587L0.83734 0.0942532C0.702006 -0.0435594 0.470585 0.0540396 0.470585 0.248928L0.470585 3.23851C0.470585 3.48014 0.662959 3.67601 0.900271 3.67601L7.48597 3.67601L7.48595 4.9184C7.48595 5.11211 7.71701 5.21127 7.85272 5.0731Z" fill="#00708D"/>
</svg>