 <svg
      width="277"
      height="116"
      viewBox="0 0 277 116"
      fill="none"
      xmlns="http://www.w3.org/2000/svg"
    >
      <g opacity="0.5">
        <line
          x1="7.53687"
          y1="61.2832"
          x2="7.53687"
          y2="103.773"
          stroke="#00708D"
          strokeWidth="2"
        />
        <circle cx="7.35398" cy="101.322" r="7.35398" fill="#00708D" />
        <g opacity="0.4">
          <line
            x1="7.64221"
            y1="13.2845"
            x2="7.64221"
            y2="51.1479"
            stroke="#00708D"
            strokeWidth="2"
          />
          <circle cx="7.30695" cy="8.63471" r="7.30695" fill="#00708D" />
          <circle cx="7.30695" cy="54.4696" r="7.30695" fill="#00708D" />
        </g>
        <rect
          opacity="0.3"
          x="31.8672"
          width="142.994"
          height="10.6224"
          rx="5.31121"
          fill="#00708D"
        />
        <rect
          opacity="0.3"
          x="31.8672"
          y="37.587"
          width="131.555"
          height="10.6224"
          rx="5.31121"
          fill="#00708D"
        />
        <rect
          opacity="0.7"
          x="31.8672"
          y="88.2478"
          width="145.445"
          height="10.6224"
          rx="5.31121"
          fill="#00708D"
        />
        <rect
          opacity="0.3"
          x="31.8672"
          y="16.3422"
          width="51.4779"
          height="10.6224"
          rx="5.31121"
          fill="#00708D"
        />
        <rect
          opacity="0.3"
          x="31.8672"
          y="53.9292"
          width="68.6372"
          height="10.6224"
          rx="5.31121"
          fill="#00708D"
        />
        <rect
          opacity="0.7"
          x="31.8672"
          y="104.59"
          width="58.8319"
          height="10.6224"
          rx="5.31121"
          fill="#00708D"
        />
        <rect
          opacity="0.3"
          x="222.254"
          width="54.7463"
          height="10.6224"
          rx="5.31121"
          fill="#00708D"
        />
        <rect
          opacity="0.3"
          x="222.254"
          y="37.587"
          width="54.7463"
          height="10.6224"
          rx="5.31121"
          fill="#00708D"
        />
        <rect
          opacity="0.7"
          x="222.254"
          y="88.2478"
          width="54.7463"
          height="10.6224"
          rx="5.31121"
          fill="#00708D"
        />
        <g clipPath="url(#clip0)">
          <path
            d="M3.48822 8.60864L3.85282 8.97325C3.93912 9.05954 4.07903 9.05954 4.16535 8.97325L7.02208 6.1165L7.02208 12.404C7.02208 12.5261 7.12102 12.625 7.24306 12.625L7.75869 12.625C7.88072 12.625 7.97967 12.5261 7.97967 12.404L7.97967 6.1165L10.8364 8.97325C10.9227 9.05954 11.0626 9.05954 11.1489 8.97325L11.5135 8.60864C11.5998 8.52235 11.5998 8.38243 11.5135 8.29612L7.65713 4.43972C7.57083 4.35343 7.43091 4.35343 7.3446 4.43972L3.4882 8.29612C3.40191 8.38241 3.40191 8.52233 3.48822 8.60864Z"
            fill="white"
          />
        </g>
        <g clipPath="url(#clip1)">
          <path
            d="M3.48822 54.6086L3.85282 54.9732C3.93912 55.0595 4.07903 55.0595 4.16535 54.9732L7.02208 52.1165L7.02208 58.404C7.02208 58.5261 7.12102 58.625 7.24306 58.625L7.75869 58.625C7.88072 58.625 7.97967 58.5261 7.97967 58.404L7.97967 52.1165L10.8364 54.9732C10.9227 55.0595 11.0626 55.0595 11.1489 54.9732L11.5135 54.6086C11.5998 54.5224 11.5998 54.3824 11.5135 54.2961L7.65713 50.4397C7.57083 50.3534 7.43091 50.3534 7.3446 50.4397L3.4882 54.2961C3.40191 54.3824 3.40191 54.5223 3.48822 54.6086Z"
            fill="white"
          />
        </g>
        <g clipPath="url(#clip2)">
          <path
            d="M11.5118 101.391L11.1472 101.027C11.0609 100.94 10.921 100.94 10.8347 101.027L7.97792 103.884L7.97792 97.596C7.97792 97.4739 7.87898 97.375 7.75694 97.375L7.24131 97.375C7.11928 97.375 7.02033 97.4739 7.02033 97.596L7.02033 103.884L4.16358 101.027C4.07729 100.94 3.93737 100.94 3.85106 101.027L3.48647 101.391C3.40018 101.478 3.40018 101.618 3.48647 101.704L7.34287 105.56C7.42917 105.647 7.56909 105.647 7.6554 105.56L11.5118 101.704C11.5981 101.618 11.5981 101.478 11.5118 101.391Z"
            fill="white"
          />
        </g>
      </g>
      <defs>
        <clipPath id="clip0">
          <rect
            width="11"
            height="11"
            fill="white"
            transform="translate(13 3) rotate(90)"
          />
        </clipPath>
        <clipPath id="clip1">
          <rect
            width="11"
            height="11"
            fill="white"
            transform="translate(13 49) rotate(90)"
          />
        </clipPath>
        <clipPath id="clip2">
          <rect
            width="11"
            height="11"
            fill="white"
            transform="translate(2 107) rotate(-90)"
          />
        </clipPath>
      </defs>
    </svg>