<svg width="14" height="18" viewBox="0 0 14 18" fill="none" xmlns="http://www.w3.org/2000/svg">
<path d="M7 3.375C5.13901 3.375 3.625 4.88901 3.625 6.75C3.625 8.611 5.13901 10.125 7 10.125C8.861 10.125 10.375 8.611 10.375 6.75C10.375 4.88901 8.861 3.375 7 3.375ZM7 9C5.75934 9 4.75 7.99067 4.75 6.75C4.75 5.50934 5.75934 4.5 7 4.5C8.24067 4.5 9.25 5.50934 9.25 6.75C9.25 7.99067 8.24067 9 7 9ZM7 0C3.27207 0 0.25 3.02207 0.25 6.75C0.25 9.47156 1.19816 10.2316 6.3063 17.6368C6.64148 18.121 7.35849 18.1211 7.69374 17.6368C12.8018 10.2316 13.75 9.47156 13.75 6.75C13.75 3.02207 10.7279 0 7 0ZM7 16.6616C2.10291 9.57966 1.375 9.01737 1.375 6.75C1.375 5.2475 1.96011 3.83495 3.02253 2.77253C4.08495 1.71011 5.4975 1.125 7 1.125C8.50251 1.125 9.91506 1.71011 10.9775 2.77253C12.0399 3.83495 12.625 5.2475 12.625 6.75C12.625 9.01723 11.8976 9.57903 7 16.6616Z" fill="#38434B" fill-opacity="0.8"/>
</svg>
