<svg width="10" height="6" viewBox="0 0 10 6" fill="none" xmlns="http://www.w3.org/2000/svg">
<path d="M1.16913 0.806274H8.46952C8.6145 0.807594 8.75589 0.85154 8.8761 0.932613C8.9963 1.01369 9.09 1.12833 9.14554 1.26225C9.20108 1.39618 9.21601 1.54347 9.18846 1.68582C9.16091 1.82817 9.09211 1.95927 8.99061 2.0628L5.34004 5.71262C5.20263 5.84947 5.01659 5.92632 4.82265 5.92632C4.62872 5.92632 4.44268 5.84947 4.30526 5.71262L0.65174 2.06429C0.5502 1.96071 0.481382 1.82954 0.453859 1.68713C0.426335 1.54471 0.441323 1.39734 0.496954 1.26338C0.552586 1.12942 0.646402 1.0148 0.766715 0.933786C0.887029 0.852768 1.02852 0.80894 1.17357 0.807763L1.16913 0.806274Z" fill="#00708D"/>
</svg>
