<svg width="10" height="6" viewBox="0 0 10 6" fill="none" xmlns="http://www.w3.org/2000/svg">
<path d="M0.649776 4.58556L4.3033 0.934999C4.44072 0.798149 4.62675 0.721313 4.82069 0.721313C5.01463 0.721313 5.20066 0.798149 5.33808 0.934999L8.98865 4.58556C9.09014 4.6891 9.15895 4.8202 9.1865 4.96255C9.21405 5.10489 9.19912 5.2522 9.14358 5.38613C9.08804 5.52005 8.99434 5.63469 8.87414 5.71576C8.75393 5.79683 8.61254 5.84077 8.46756 5.84209H1.17308C1.02791 5.8412 0.886217 5.79758 0.765679 5.71667C0.645142 5.63576 0.551098 5.52115 0.495285 5.38714C0.439472 5.25312 0.42436 5.10564 0.451834 4.96309C0.479308 4.82054 0.548152 4.68924 0.649776 4.58556Z" fill="#00708D"/>
</svg>
