<svg
  xmlns="http://www.w3.org/2000/svg"
  width="132"
  height="132"
  viewBox="0 0 132 132"
>
  <g id="vehicle-image-placeholder" transform="translate(3330 414)">
    <rect
      id="Rectangle_1686"
      data-name="Rectangle 1686"
      width="132"
      height="132"
      transform="translate(-3330 -414)"
      fill="rgba(0,165,181,0.2)"
    />
    <g id="ic_car" transform="translate(-3305 -389)">
      <path
        id="car-regular"
        d="M64.894,80.614H58.118l-4.07-10.108A10.38,10.38,0,0,0,44.418,64H22.038a10.384,10.384,0,0,0-9.631,6.5L8.337,80.612H1.562A1.557,1.557,0,0,0,.051,82.547L.83,85.662a1.559,1.559,0,0,0,1.511,1.18H3.808A12.28,12.28,0,0,0,2.08,93.07v17.652a3.116,3.116,0,0,0,3.115,3.115H7.271a3.116,3.116,0,0,0,3.115-3.115v-3.115H56.07v3.115a3.116,3.116,0,0,0,3.115,3.115h2.077a3.116,3.116,0,0,0,3.115-3.115V93.072a12.285,12.285,0,0,0-1.727-6.228h1.468a1.556,1.556,0,0,0,1.511-1.18l.779-3.115A1.558,1.558,0,0,0,64.894,80.614ZM18.186,72.832a4.133,4.133,0,0,1,3.852-2.6h22.38a4.133,4.133,0,0,1,3.852,2.6L51.4,80.611H15.054ZM58.147,99.3a2.079,2.079,0,0,1-2.077,2.077H10.386A2.079,2.079,0,0,1,8.309,99.3v-6.23a6.236,6.236,0,0,1,6.23-6.23H51.917a6.236,6.236,0,0,1,6.23,6.23ZM16.616,89.956a4.141,4.141,0,1,0,0,8.283c2.492,0,6.23.414,6.23-2.071S19.107,89.956,16.616,89.956Zm33.225,0c-2.492,0-6.23,3.727-6.23,6.211s3.738,2.071,6.23,2.071a4.141,4.141,0,1,0,0-8.283Z"
        transform="translate(6.603 -47.484)"
        fill="#10a5b5"
      />
      <rect
        id="Rectangle_933"
        data-name="Rectangle 933"
        width="82.579"
        height="82.579"
        fill="none"
      />
    </g>
  </g>
</svg>
