<svg viewBox="0 0 34 72.5" width="34px" height="72.5px" fill="none"
    xmlns="http://www.w3.org/2000/svg">
    <g transform="translate(-13, -7.5)">
        <path d="M37.5 71a7.5 7.5 0 11-15 0 7.5 7.5 0 0115 0z" fill="#fff" stroke="#00708D"/>
        <path d="M30 77.38a6.38 6.38 0 100-12.76 6.38 6.38 0 000 12.76z" stroke="#00708D" stroke-width="4"/>
        <path d="M15.556 20l5-6.667 7.222-3.889c2.777.556 8.555 1.778 9.444 2.223.89.444 3.334 2.407 4.445 3.333L45 22.222v5.556l-2.778 4.444-3.889 8.334-7.222 7.777L28.89 50l-2.778-4.444-7.222-9.445-3.333-8.889V20z" fill="#fff"/>
        <path d="M30 7.5c-9.325 0-16.875 7.56-16.875 16.875 0 6.25 2.109 8.204 13.295 26.14 1.651 2.648 5.51 2.645 7.16 0 11.192-17.946 13.295-19.89 13.295-26.14C46.875 15.05 39.315 7.5 30 7.5zm0 40.781c-11.2-17.957-12.656-19.09-12.656-23.906 0-6.99 5.666-12.656 12.656-12.656s12.656 5.666 12.656 12.656c0 4.795-1.333 5.75-12.656 23.906zm-7.031-23.906a7.031 7.031 0 1114.062 0 7.031 7.031 0 01-14.062 0z" fill="#00708D"/>
    </g>
</svg>