<svg width="14" height="19" viewBox="0 0 14 19" fill="none" xmlns="http://www.w3.org/2000/svg">
<path d="M7 0.00976562C3.27003 0.00976562 0.25 3.0337 0.25 6.75977C0.25 9.25998 1.09343 10.0413 5.56812 17.2161C6.22853 18.275 7.77221 18.2737 8.43185 17.2161C12.9089 10.0375 13.75 9.25949 13.75 6.75977C13.75 3.02979 10.7261 0.00976562 7 0.00976562ZM7 16.3223C2.52025 9.13936 1.9375 8.68591 1.9375 6.75977C1.9375 3.96383 4.20406 1.69727 7 1.69727C9.79595 1.69727 12.0625 3.96383 12.0625 6.75977C12.0625 8.67765 11.5293 9.05987 7 16.3223ZM4.1875 6.75977C4.1875 5.20646 5.44669 3.94727 7 3.94727C8.55331 3.94727 9.8125 5.20646 9.8125 6.75977C9.8125 8.31308 8.55331 9.57227 7 9.57227C5.44669 9.57227 4.1875 8.31308 4.1875 6.75977Z" fill="#00708D"/>
</svg>
